<mxfile host="app.diagrams.net" modified="2020-09-18T11:02:34.262Z" agent="5.0 (X11; Linux x86_64) AppleWebKit/537.36 (KHTML, like Gecko) Chrome/80.0.3987.122 Safari/537.36" etag="NK5L1PQtW-CEPwDd6UZj" version="13.6.5" type="github">
  <diagram name="Page-1" id="90a13364-a465-7bf4-72fc-28e22215d7a0">
    <mxGraphModel dx="1094" dy="554" grid="1" gridSize="10" guides="1" tooltips="1" connect="1" arrows="1" fold="1" page="1" pageScale="1.5" pageWidth="1169" pageHeight="826" background="#ffffff" math="0" shadow="0">
      <root>
        <mxCell id="0" style=";html=1;" />
        <mxCell id="1" style=";html=1;" parent="0" />
        <mxCell id="dTF6DqdIlyTkAC6OraM3-1" value="" style="rounded=1;whiteSpace=wrap;html=1;arcSize=1;" vertex="1" parent="1">
          <mxGeometry x="310" y="1130" width="800" height="480" as="geometry" />
        </mxCell>
        <mxCell id="dTF6DqdIlyTkAC6OraM3-2" value="&lt;font color=&quot;#ffffff&quot; size=&quot;1&quot;&gt;&lt;b&gt;&lt;i style=&quot;font-size: 16px&quot;&gt;MMCM&lt;/i&gt;&lt;/b&gt;&lt;/font&gt;" style="rounded=1;whiteSpace=wrap;html=1;strokeWidth=2;arcSize=7;fillColor=#99CCFF;strokeColor=#0066CC;" vertex="1" parent="1">
          <mxGeometry x="520" y="310" width="140" height="60" as="geometry" />
        </mxCell>
        <mxCell id="dTF6DqdIlyTkAC6OraM3-3" value="&lt;b&gt;&lt;font style=&quot;font-size: 16px&quot; color=&quot;#ffffff&quot;&gt;&lt;i&gt;FIFO&lt;/i&gt;&lt;/font&gt;&lt;/b&gt;" style="rounded=1;whiteSpace=wrap;html=1;strokeWidth=2;glass=0;shadow=0;sketch=0;arcSize=5;strokeColor=#0066CC;fillColor=#99CCFF;" vertex="1" parent="1">
          <mxGeometry x="380" y="600" width="120" height="110" as="geometry" />
        </mxCell>
        <mxCell id="dTF6DqdIlyTkAC6OraM3-4" value="&lt;b&gt;&lt;font color=&quot;#ffffff&quot; size=&quot;1&quot;&gt;&lt;i style=&quot;font-size: 16px&quot;&gt;40 MHz&lt;/i&gt;&lt;/font&gt;&lt;/b&gt;" style="rounded=1;whiteSpace=wrap;html=1;arcSize=6;strokeWidth=2;fillColor=#404040;" vertex="1" parent="1">
          <mxGeometry x="140" y="310" width="120" height="60" as="geometry" />
        </mxCell>
        <mxCell id="dTF6DqdIlyTkAC6OraM3-5" value="&lt;b&gt;&lt;i&gt;&lt;font style=&quot;font-size: 16px&quot; color=&quot;#ffffff&quot;&gt;ADC&lt;/font&gt;&lt;/i&gt;&lt;/b&gt;" style="rounded=1;whiteSpace=wrap;html=1;strokeWidth=2;arcSize=8;fillColor=#404040;" vertex="1" parent="1">
          <mxGeometry x="140" y="780" width="120" height="60" as="geometry" />
        </mxCell>
        <mxCell id="dTF6DqdIlyTkAC6OraM3-6" value="&lt;b&gt;&lt;i&gt;&lt;font style=&quot;font-size: 16px&quot;&gt;ADC_Control&lt;/font&gt;&lt;/i&gt;&lt;/b&gt;" style="rounded=1;whiteSpace=wrap;html=1;arcSize=5;fillColor=#99CCFF;strokeWidth=2;strokeColor=#0066CC;" vertex="1" parent="1">
          <mxGeometry x="650" y="600" width="160" height="110" as="geometry" />
        </mxCell>
        <mxCell id="dTF6DqdIlyTkAC6OraM3-7" value="MUX_Control" style="rounded=0;whiteSpace=wrap;html=1;" vertex="1" parent="1">
          <mxGeometry x="920" y="470" width="120" height="60" as="geometry" />
        </mxCell>
        <mxCell id="dTF6DqdIlyTkAC6OraM3-8" value="4 x MUX" style="rounded=0;whiteSpace=wrap;html=1;" vertex="1" parent="1">
          <mxGeometry x="1200" y="630" width="120" height="60" as="geometry" />
        </mxCell>
        <mxCell id="dTF6DqdIlyTkAC6OraM3-10" value="" style="endArrow=blockThin;html=1;entryX=0;entryY=0.5;entryDx=0;entryDy=0;exitX=1;exitY=0.5;exitDx=0;exitDy=0;strokeWidth=2;endFill=1;" edge="1" parent="1" source="dTF6DqdIlyTkAC6OraM3-4" target="dTF6DqdIlyTkAC6OraM3-2">
          <mxGeometry width="50" height="50" relative="1" as="geometry">
            <mxPoint x="700" y="590" as="sourcePoint" />
            <mxPoint x="750" y="540" as="targetPoint" />
          </mxGeometry>
        </mxCell>
        <mxCell id="dTF6DqdIlyTkAC6OraM3-14" value="" style="endArrow=blockThin;html=1;strokeWidth=2;rounded=1;jumpSize=0;endFill=1;exitX=0.21;exitY=1.009;exitDx=0;exitDy=0;exitPerimeter=0;strokeColor=#0066CC;" edge="1" parent="1" source="dTF6DqdIlyTkAC6OraM3-2">
          <mxGeometry width="50" height="50" relative="1" as="geometry">
            <mxPoint x="550" y="373" as="sourcePoint" />
            <mxPoint x="549" y="440" as="targetPoint" />
          </mxGeometry>
        </mxCell>
        <mxCell id="dTF6DqdIlyTkAC6OraM3-15" value="" style="endArrow=blockThin;html=1;endFill=1;strokeWidth=2;exitX=0.786;exitY=1;exitDx=0;exitDy=0;exitPerimeter=0;fillColor=#f8cecc;strokeColor=#FF6666;" edge="1" parent="1" source="dTF6DqdIlyTkAC6OraM3-2">
          <mxGeometry width="50" height="50" relative="1" as="geometry">
            <mxPoint x="680" y="390" as="sourcePoint" />
            <mxPoint x="630" y="440" as="targetPoint" />
          </mxGeometry>
        </mxCell>
        <mxCell id="dTF6DqdIlyTkAC6OraM3-16" value="&lt;b&gt;&lt;font style=&quot;font-size: 16px&quot; color=&quot;#0066cc&quot;&gt;&lt;i&gt;200 MHz&lt;/i&gt;&lt;/font&gt;&lt;/b&gt;" style="text;html=1;align=center;verticalAlign=middle;resizable=0;points=[];autosize=1;" vertex="1" parent="1">
          <mxGeometry x="505" y="440" width="80" height="20" as="geometry" />
        </mxCell>
        <mxCell id="dTF6DqdIlyTkAC6OraM3-17" value="&lt;font color=&quot;#ff6666&quot; size=&quot;1&quot;&gt;&lt;b style=&quot;font-size: 16px&quot;&gt;&lt;i&gt;160 MHz&lt;/i&gt;&lt;/b&gt;&lt;/font&gt;" style="text;html=1;align=center;verticalAlign=middle;resizable=0;points=[];autosize=1;" vertex="1" parent="1">
          <mxGeometry x="595" y="440" width="80" height="20" as="geometry" />
        </mxCell>
        <mxCell id="dTF6DqdIlyTkAC6OraM3-18" value="" style="endArrow=blockThin;html=1;strokeWidth=2;rounded=1;jumpSize=0;endFill=1;exitX=0.21;exitY=1.009;exitDx=0;exitDy=0;exitPerimeter=0;strokeColor=#0066CC;" edge="1" parent="1">
          <mxGeometry width="50" height="50" relative="1" as="geometry">
            <mxPoint x="407.4000000000001" y="530" as="sourcePoint" />
            <mxPoint x="407.0000000000002" y="599.46" as="targetPoint" />
          </mxGeometry>
        </mxCell>
        <mxCell id="dTF6DqdIlyTkAC6OraM3-19" value="" style="endArrow=blockThin;html=1;endFill=1;strokeWidth=2;exitX=0.786;exitY=1;exitDx=0;exitDy=0;exitPerimeter=0;fillColor=#f8cecc;strokeColor=#FF6666;" edge="1" parent="1">
          <mxGeometry width="50" height="50" relative="1" as="geometry">
            <mxPoint x="472.03999999999996" y="530" as="sourcePoint" />
            <mxPoint x="472" y="600" as="targetPoint" />
          </mxGeometry>
        </mxCell>
        <mxCell id="dTF6DqdIlyTkAC6OraM3-20" value="&lt;b&gt;&lt;font style=&quot;font-size: 16px&quot; color=&quot;#0066cc&quot;&gt;&lt;i&gt;200 MHz&lt;/i&gt;&lt;/font&gt;&lt;/b&gt;" style="text;html=1;align=center;verticalAlign=middle;resizable=0;points=[];autosize=1;" vertex="1" parent="1">
          <mxGeometry x="360" y="510" width="80" height="20" as="geometry" />
        </mxCell>
        <mxCell id="dTF6DqdIlyTkAC6OraM3-21" value="&lt;font color=&quot;#ff6666&quot; size=&quot;1&quot;&gt;&lt;b style=&quot;font-size: 16px&quot;&gt;&lt;i&gt;160 MHz&lt;/i&gt;&lt;/b&gt;&lt;/font&gt;" style="text;html=1;align=center;verticalAlign=middle;resizable=0;points=[];autosize=1;" vertex="1" parent="1">
          <mxGeometry x="440" y="510" width="80" height="20" as="geometry" />
        </mxCell>
        <mxCell id="dTF6DqdIlyTkAC6OraM3-22" value="" style="endArrow=blockThin;html=1;strokeColor=#FF6666;strokeWidth=4;entryX=1;entryY=0.5;entryDx=0;entryDy=0;exitX=0;exitY=0.5;exitDx=0;exitDy=0;endFill=1;" edge="1" parent="1" source="dTF6DqdIlyTkAC6OraM3-6" target="dTF6DqdIlyTkAC6OraM3-3">
          <mxGeometry width="50" height="50" relative="1" as="geometry">
            <mxPoint x="650" y="530" as="sourcePoint" />
            <mxPoint x="700" y="480" as="targetPoint" />
          </mxGeometry>
        </mxCell>
        <mxCell id="dTF6DqdIlyTkAC6OraM3-24" value="&lt;b&gt;&lt;i&gt;&lt;font style=&quot;font-size: 15px&quot; color=&quot;#e6e6e6&quot;&gt;Data2FPGA&lt;/font&gt;&lt;/i&gt;&lt;/b&gt;" style="text;html=1;align=center;verticalAlign=middle;resizable=0;points=[];autosize=1;" vertex="1" parent="1">
          <mxGeometry x="530" y="630" width="100" height="20" as="geometry" />
        </mxCell>
      </root>
    </mxGraphModel>
  </diagram>
</mxfile>
